<?xml version="1.0" standalone="no"?>
<!DOCTYPE svg PUBLIC "-//W3C//DTD SVG 20010904//EN"
 "http://www.w3.org/TR/2001/REC-SVG-20010904/DTD/svg10.dtd">
<svg version="1.0" xmlns="http://www.w3.org/2000/svg"
      height="80"  viewBox="0 0 300.000000 286.000000"
 preserveAspectRatio="xMidYMid meet">
<metadata>
Created by potrace 1.10, written by Peter Selinger 2001-2011
</metadata>
<g transform="translate(0.000000,286.000000) scale(0.100000,-0.100000)"
fill="#000000" stroke="none">
<path d="M200 2839 c-14 -6 -36 -20 -48 -32 -57 -53 -54 -10 -59 -937 -3 -471
-2 -1051 2 -1288 7 -420 8 -434 29 -465 12 -17 37 -42 55 -54 l34 -23 1284 0
c1440 0 1329 -6 1381 73 l27 41 0 1290 0 1291 -24 38 c-12 21 -40 46 -62 57
-37 20 -64 20 -1316 19 -824 0 -1287 -4 -1303 -10z m2609 -44 c65 -33 61 47
61 -1349 0 -1072 -2 -1272 -14 -1301 -30 -70 67 -66 -1367 -63 l-1291 3 -29
33 -29 32 0 1294 0 1293 21 27 c12 15 31 32 43 36 11 5 596 9 1299 9 1100 1
1282 -1 1306 -14z"/>
<path d="M1908 2093 c-19 -41 -30 -50 -65 -61 -49 -16 -56 -37 -15 -47 47 -11
71 -33 82 -76 14 -50 28 -47 49 11 14 38 23 47 61 61 53 20 56 30 15 44 -46
15 -55 24 -75 71 -11 24 -22 44 -24 44 -3 0 -16 -21 -28 -47z m62 -55 l29 -33
-25 -23 c-13 -13 -24 -27 -24 -32 0 -18 -16 -11 -53 23 l-37 32 38 32 c20 18
38 32 40 33 1 0 15 -15 32 -32z"/>
<path d="M1301 2104 c-112 -39 -193 -127 -216 -232 -10 -46 -30 -62 -78 -62
-98 0 -182 -53 -220 -140 -26 -57 -35 -228 -17 -313 24 -115 101 -179 218
-181 l65 -1 147 -285 c158 -306 176 -330 247 -330 64 0 90 39 224 335 67 149
128 276 135 284 11 12 6 19 -30 41 -59 38 -82 88 -76 165 11 163 2 245 -29
245 -16 0 -17 -8 -13 -103 7 -165 -34 -264 -133 -322 -40 -24 -54 -27 -109
-23 -151 9 -237 138 -223 333 3 44 9 91 13 103 6 21 4 23 -17 20 -19 -2 -24
-9 -25 -34 -1 -46 -11 -54 -59 -54 -47 0 -65 17 -65 58 0 11 -8 30 -18 42 -15
18 -25 22 -46 16 -42 -10 -59 -62 -60 -181 0 -125 20 -178 71 -183 35 -3 63
25 63 64 0 25 17 34 65 34 50 0 61 -20 46 -86 -9 -40 -22 -65 -48 -90 -35 -35
-35 -35 -107 -30 -39 3 -88 12 -108 20 -33 14 -94 78 -97 101 -1 6 -6 25 -12
44 -7 20 -10 79 -7 150 5 127 19 171 75 223 23 23 90 59 108 58 96 -2 125 16
145 89 44 164 246 265 400 201 104 -44 160 -104 195 -211 9 -26 23 -53 31 -59
8 -7 53 -16 100 -21 110 -11 164 -35 203 -90 42 -57 61 -127 61 -220 0 -178
-78 -279 -217 -279 -41 0 -54 -3 -43 -10 22 -14 106 -12 143 4 43 18 81 61
109 121 20 43 23 66 23 170 0 105 -3 127 -24 172 -45 101 -135 153 -265 153
-34 0 -67 4 -73 8 -7 5 -20 31 -28 59 -32 108 -119 198 -217 228 -65 19 -150
19 -207 -1z m-291 -514 c0 -33 57 -70 106 -70 l44 0 0 -45 0 -45 -44 0 c-50 0
-90 -26 -100 -65 -7 -29 -40 -34 -51 -7 -25 65 -22 224 5 257 15 18 40 3 40
-25z m659 -348 c-40 -4 -44 1 -23 33 l17 26 18 -28 19 -28 -31 -3z m-449 3 c0
-7 -12 -20 -27 -30 -16 -9 -38 -28 -49 -42 -13 -15 -27 -23 -34 -18 -8 5 -5
13 10 27 11 11 32 37 46 59 21 33 28 38 40 29 8 -7 14 -18 14 -25z m484 -57
c9 -15 4 -25 -29 -57 l-40 -38 -33 37 -32 38 32 21 c38 25 86 24 102 -1z
m-426 -15 c26 -15 49 -28 52 -30 4 -4 -109 -113 -116 -113 -2 0 -17 26 -33 57
l-28 57 35 28 c19 15 37 28 39 28 2 0 25 -12 51 -27z m87 -67 c-7 -35 -18 -45
-30 -26 -6 10 23 75 31 67 3 -3 2 -21 -1 -41z m334 -57 c-34 -68 -43 -80 -49
-64 -6 17 -12 11 -36 -37 -26 -54 -29 -56 -45 -42 -17 15 -16 18 19 56 20 22
35 46 33 52 -13 39 -8 54 19 60 16 3 44 20 62 39 18 18 34 31 36 27 1 -4 -16
-45 -39 -91z m-147 -41 l-42 -43 -65 65 c-60 59 -63 65 -49 81 10 11 34 19 63
21 42 3 50 0 91 -39 l45 -43 -43 -42z m-154 -145 c-34 -34 -64 -60 -67 -58 -3
3 -23 40 -46 83 l-42 77 46 42 46 41 63 -61 62 -61 -62 -63z m-176 133 c12
-17 9 -26 -7 -26 -12 0 -35 28 -35 44 0 8 34 -6 42 -18z m309 -74 c7 -19 5
-22 -21 -22 -25 0 -29 4 -28 23 3 30 38 29 49 -1z m83 -54 c-3 -13 -11 -29
-18 -37 -9 -11 -12 -9 -16 10 -5 21 9 39 38 48 2 1 0 -9 -4 -21z m-99 -131
c-24 -49 -50 -94 -58 -98 -19 -11 -43 8 -71 56 l-23 40 71 72 70 73 27 -26 27
-26 -43 -91z m-181 40 c14 -11 16 -18 9 -32 -9 -16 -11 -16 -27 6 -27 39 -17
52 18 26z"/>
<path d="M450 1778 c-55 -29 -80 -62 -91 -123 -11 -58 3 -119 34 -154 12 -13
54 -45 92 -71 86 -58 97 -71 93 -107 -3 -25 -8 -28 -41 -31 -43 -4 -67 11 -67
39 0 11 -3 19 -7 20 -52 7 -98 3 -110 -10 -19 -18 -11 -75 15 -110 38 -52 69
-66 150 -69 66 -3 83 0 121 20 82 44 115 152 71 237 -20 40 -27 47 -140 129
-69 50 -83 78 -54 106 24 25 66 17 82 -16 12 -26 18 -28 67 -28 50 0 55 2 61
26 9 35 -10 96 -38 121 -54 48 -165 58 -238 21z m197 -39 c25 -15 48 -62 38
-78 -9 -16 -41 -13 -56 5 -20 24 -62 42 -89 38 -34 -5 -70 -49 -70 -83 0 -39
30 -74 115 -131 79 -53 105 -92 105 -157 0 -81 -63 -136 -156 -134 -92 1 -150
39 -142 94 4 29 32 24 76 -14 40 -35 81 -38 116 -6 60 53 36 109 -78 187 -89
60 -108 84 -111 148 -3 56 12 90 57 127 30 25 37 27 103 23 38 -3 80 -11 92
-19z"/>
<path d="M2185 1787 c-3 -7 -4 -147 -3 -312 l3 -300 65 0 65 0 5 80 5 80 90 5
c113 6 158 28 200 95 26 43 30 57 30 124 0 97 -8 123 -51 171 -51 56 -105 70
-271 70 -98 0 -135 -3 -138 -13z m343 -52 c57 -34 77 -78 77 -171 0 -72 -3
-84 -27 -116 -43 -56 -100 -75 -230 -78 -32 0 -55 -38 -60 -97 -6 -64 -24 -85
-58 -63 -13 8 -15 50 -16 267 -1 142 1 264 4 271 4 11 34 13 141 10 114 -2
141 -6 169 -23z"/>
<path d="M2312 1680 c-19 -23 -31 -125 -20 -179 11 -55 29 -66 101 -63 74 4
121 29 136 74 37 106 -24 188 -141 188 -46 0 -62 -4 -76 -20z m168 -40 c27
-27 28 -108 1 -141 -17 -21 -28 -24 -88 -24 l-68 0 -3 93 -3 92 71 0 c57 0 74
-4 90 -20z"/>
<path d="M1401 1654 c-36 -26 -51 -74 -51 -168 0 -121 32 -186 90 -186 65 0
100 63 100 180 0 148 -63 227 -139 174z m86 -51 c26 -40 26 -197 -1 -236 -27
-40 -65 -34 -88 13 -23 45 -24 169 -3 210 24 47 66 53 92 13z"/>
<path d="M1852 1650 c-29 -27 -42 -81 -41 -170 0 -90 15 -136 51 -163 62 -46
107 7 115 137 6 94 -8 158 -42 192 -29 29 -54 30 -83 4z m73 -46 c22 -34 26
-183 6 -231 -17 -41 -44 -43 -68 -6 -14 21 -18 48 -18 113 0 132 37 189 80
124z"/>
</g>
</svg>
