<svg id="Layer_1" enable-background="new 0 0 64 64" height="512" viewBox="0 0 64 64" width="512" xmlns="http://www.w3.org/2000/svg"><g><path d="m62 23h-10-8-10c-.6 0-1 .4-1 1v6.7l-2.5-.6-2.7-2.7c3-2.8 3.2-8.7 3.2-10.4 3.7 0 6.3-1 7.3-2.8.4-.8.7-2.1-.4-3.8-1.1-1.6-2.5-2.4-4.4-2.4-.1 0-3.6 0-3.6 0-.3-1.8-1.5-5.6-6.2-6.7-1-.2-2.4-.3-2.7-.3-10.4 0-12 5-12 8v5c0 .7.3 1.5.9 2.1-.5.6-.9 1.6-.9 2.9 0 2.5 1.7 3.6 3.2 3.9.5 1.5 1.2 2.6 1.9 3.5l-3.7 3.7c-.8.9.2 1.8.2 1.8l-4.3 4.3c-.4.5-4.3 4.5-4.3 7.8 0 .2 0 .3.1.4l5 10c.1.3.4.4.6.5.1 0 1 .3 2.3.3 0 .1-.1 5.7-.1 5.7 0 .6.4 1 1 1s1-.4 1-1v-2.8c1.5 1.8 3.9 3.8 7 3.8s8.8-2 13.8-3.8c.9-.3 1.7-.6 2.5-.9.2-.1.4-.1.7-.2v4c0 .6.4 1 1 1s1-.4 1-1v-4.5c1.8-.4 3.5-.6 5-.5h7c1.7 0 4-.6 4.7-2.4.2-.5.3-1 .3-1.6h7c.6 0 1-.4 1-1v-27c.1-.6-.3-1-.9-1zm-11 2v5.4l-2.6-1.3c-.1-.1-.2-.1-.4-.1s-.3 0-.4.1l-2.6 1.3v-5.4zm-29.2 5.5c-.1-.2-.6-.5-.6-.5 1.2 0 2.2-.2 3.2-.5l-.4 1.2-1 2.6s-1.1-2.8-1.2-2.8zm4.9-1.4 2.1 2.1-1 1.9-1.7-2.3zm1.8-19.1c-.9.7-1.7 1.6-2.3 2.4-1.7 2.5-3.2 2.6-3.2 2.6h-5.3c.4-.4.8-.9 1.1-1.4 1.2-1.8 3.4-3.6 5.2-3.6zm7.7 1.6c.5.7.6 1.3.3 1.7-.4.8-2.1 1.7-5.5 1.7h-.1c-.2-1.8-.5-3.1-.7-3.8 1.1-.7 2.2-1.2 3.3-1.2s2 .5 2.7 1.6zm-25.2-2.6c0-3.6 2.9-5.1 6.2-5.7-1.7 1.8-2.2 4.1-2.2 5.7 0 .6.4 1 1 1 .5 0 1-.4 1-1s.2-5.4 5.1-5.9c4.3.4 5.5 3.4 5.8 4.9h-3.9c-2.7 0-5.4 2.2-6.8 4.4-1.7 2.5-3.2 2.6-3.2 2.6h-2c-.8 0-1-.5-1-1zm2 12c-.3 0-2-.1-2-2 0-1.8.8-2 1-2h11c.3 0 2.6-.1 4.8-3.4.2-.3.4-.6.7-.9.2.9.5 2.4.5 4.4 0 .1.4 5.6-2.5 8.8-1.3 1.4-3.2 2.1-5.5 2.1-.1 0-5.3-.1-7-6.3-.2-.4-.6-.7-1-.7zm2.1 7.3 4.4 2.9-2.7 3.4-4.4-3.6zm-11.1 15.5c.2-2.1 2.7-5.1 3.7-6.1l4.4-4.4 4.2 3.5c.2.2.4.2.6.2h.1c.3 0 .5-.2.7-.4l2.9-3.7 1.4 3.4c.2.4.5.6.9.6s.8-.2.9-.6l1.3-3.3 1.9 2.6c.2.3.5.4.9.4.3 0 .6-.2.8-.5l1.6-3.3 2.5.6v15.9c-1.5.5-3.3 1.1-5.2 1.7-1.5.5-3 1-4.4 1.5-1.7.6-3.7-.1-4.6-1.7l-3.9-6.7c-.3-.5-.9-.6-1.4-.3s-.6.9-.3 1.4l2.8 4.6c-1.6 4.7-5.9 4.3-7.2 4zm48.8 9c-.3.8-1.7 1.2-2.8 1.2h-6.9c-3.3-.2-6.7.8-8.4 1.4-.8.3-1.7.6-2.5.9-4.7 1.6-10.4 3.7-13.2 3.7-3.5 0-6-3.6-6.8-4.9 1.7-.4 3.6-1.3 5-3.7 1.1 1.7 3 2.7 5 2.7.6 0 1.2-.1 1.8-.3 1.3-.4 2.8-.9 4.4-1.5 4.4-1.5 9.8-3.3 11.2-3.3h7c.3 0 .9.2 1 1h-2.6c-.6 0-1 .4-1 1s.4 1 1 1c0 0 7.6.1 8 .1 0 .2-.1.5-.2.7zm8.2-2.8h-11.4c-.1-2.2-1.8-3-3-3h-7c-.9 0-2.4.4-4.6 1v-23h8v7c0 .3.2.7.5.9s.7.2 1 0l3.6-1.8 3.6 1.8c0 .1.1.1.3.1s.4 0 .5-.1c.3-.2.5-.5.5-.9v-7h8z"/><path d="m43 43h-4c-.6 0-1 .4-1 1s.4 1 1 1h4c.6 0 1-.4 1-1s-.4-1-1-1z"/><path d="m39 42h2c.6 0 1-.4 1-1s-.4-1-1-1h-2c-.6 0-1 .4-1 1s.4 1 1 1z"/></g></svg>