<svg xmlns="http://www.w3.org/2000/svg" id="Icons" viewBox="0 0 60 60" width="512" height="512"><path d="M46.343,27.953,44,30.3V3a3,3,0,0,0-3-3H3A3,3,0,0,0,0,3V41a3,3,0,0,0,3,3H30.308l-2.344,2.344a8,8,0,1,0,11.3,11.316l7.085-7.076a7.813,7.813,0,0,0,1.665-2.537,7.829,7.829,0,0,0,2.57-1.708l7.07-7.071a8,8,0,0,0,0-11.316A8.029,8.029,0,0,0,46.343,27.953ZM3,42a1,1,0,0,1-1-1V3A1,1,0,0,1,3,2H41a1,1,0,0,1,1,1V32.3l-2.731,2.731a7.768,7.768,0,0,0-1.659,2.533,7.66,7.66,0,0,0-2.577,1.713L32.308,42Zm43.348-2.726a7.921,7.921,0,0,0-1.606-1.231L50.585,32.2a2,2,0,0,1,2.829,2.829L47.563,40.88A7.639,7.639,0,0,0,46.348,39.274Zm-7.079,7.06a7.667,7.667,0,0,0,1.6,1.236l-5.844,5.844A2,2,0,0,1,32.2,50.585l5.863-5.863A7.656,7.656,0,0,0,39.269,46.334Zm5.664,2.84-7.08,7.071a6,6,0,1,1-8.476-8.486l7.075-7.075a5.871,5.871,0,0,1,.571-.5,8.354,8.354,0,0,0,.233,2.52l-6.47,6.47a4,4,0,0,0,5.657,5.657l7.072-7.071a4.008,4.008,0,0,0,0-5.657,2,2,0,0,1-.213-2.569,5.876,5.876,0,0,1,1.631,1.157A6.111,6.111,0,0,1,44.933,49.174Zm11.31-11.32-7.07,7.071a6.056,6.056,0,0,1-.563.493,8.28,8.28,0,0,0-.235-2.523l6.453-6.453a4,4,0,0,0-5.657-5.657L42.1,37.856a4.005,4.005,0,0,0,0,5.658,2,2,0,0,1,.212,2.568,5.739,5.739,0,0,1-1.621-1.152,6.223,6.223,0,0,1-.005-8.492l7.069-7.07A6,6,0,0,1,58,33.61,5.962,5.962,0,0,1,56.243,37.854Z"></path><path d="M8,19h8a3,3,0,0,0,3-3V8a3,3,0,0,0-3-3H8A3,3,0,0,0,5,8v8A3,3,0,0,0,8,19ZM7,8A1,1,0,0,1,8,7h8a1,1,0,0,1,1,1v8a1,1,0,0,1-1,1H8a1,1,0,0,1-1-1Z"></path><path d="M11,15h2a2,2,0,0,0,2-2V11a2,2,0,0,0-2-2H11a2,2,0,0,0-2,2v2A2,2,0,0,0,11,15Zm0-4h2v2l-2,0Z"></path><path d="M31,15h2a2,2,0,0,0,2-2V11a2,2,0,0,0-2-2H31a2,2,0,0,0-2,2v2A2,2,0,0,0,31,15Zm0-4h2v2l-2,0Z"></path><path d="M28,19h8a3,3,0,0,0,3-3V8a3,3,0,0,0-3-3H28a3,3,0,0,0-3,3v8A3,3,0,0,0,28,19ZM27,8a1,1,0,0,1,1-1h8a1,1,0,0,1,1,1v8a1,1,0,0,1-1,1H28a1,1,0,0,1-1-1Z"></path><path d="M16,25H8a3,3,0,0,0-3,3v8a3,3,0,0,0,3,3h8a3,3,0,0,0,3-3V28A3,3,0,0,0,16,25Zm1,11a1,1,0,0,1-1,1H8a1,1,0,0,1-1-1V28a1,1,0,0,1,1-1h8a1,1,0,0,1,1,1Z"></path><path d="M13,29H11a2,2,0,0,0-2,2v2a2,2,0,0,0,2,2h2a2,2,0,0,0,2-2V31A2,2,0,0,0,13,29Zm0,4-2,0V31h2Z"></path><path d="M22,12a1,1,0,0,0,1-1V6a1,1,0,0,0-2,0v5A1,1,0,0,0,22,12Z"></path><path d="M38,23a1,1,0,0,0,0-2H23V15a1,1,0,0,0-2,0v6H19a1,1,0,0,0,0,2h2V38a1,1,0,0,0,2,0V23Z"></path><path d="M6,23h9a1,1,0,0,0,0-2H6a1,1,0,0,0,0,2Z"></path><path d="M37,25H33a1,1,0,0,0,0,2h4v5a1,1,0,0,0,2,0V27A2,2,0,0,0,37,25Z"></path><path d="M33,37H26a1,1,0,0,0,0,2h7a1,1,0,0,0,0-2Z"></path><path d="M27,25a2,2,0,0,0-2,2v7a1,1,0,0,0,2,0V27h2a1,1,0,0,0,0-2Z"></path><path d="M34,29H31a2,2,0,0,0-2,2v3a1,1,0,0,0,2,0V31h3a1,1,0,0,0,0-2Z"></path></svg>