<svg id="Layer_1" enable-background="new 0 0 492 492" viewBox="0 0 492 492" xmlns="http://www.w3.org/2000/svg"><g clip-rule="evenodd" fill="rgb(0,0,0)" fill-rule="evenodd"><path d="m329.992 429.194h-164.356c-23.822 0-43.201-19.38-43.201-43.202v-95.702c0-23.822 19.379-43.202 43.201-43.202h164.356c23.822 0 43.202 19.38 43.202 43.202v95.702c0 23.822-19.38 43.202-43.202 43.202zm-164.356-170.598c-17.475 0-31.693 14.217-31.693 31.694v95.702c0 17.476 14.217 31.694 31.693 31.694h164.356c17.476 0 31.694-14.217 31.694-31.694v-95.702c0-17.476-14.217-31.694-31.694-31.694z"/><path d="m204.186 344.701c-12.817 0-23.243-10.427-23.243-23.243s10.427-23.243 23.243-23.243c12.817 0 23.243 10.427 23.243 23.243 0 12.817-10.426 23.243-23.243 23.243zm0-34.977c-6.471 0-11.735 5.265-11.735 11.734 0 6.47 5.265 11.735 11.735 11.735 6.471 0 11.735-5.265 11.735-11.735s-5.264-11.734-11.735-11.734z"/><path d="m291.442 344.701c-12.817 0-23.243-10.427-23.243-23.243s10.427-23.243 23.243-23.243c12.817 0 23.243 10.427 23.243 23.243 0 12.817-10.427 23.243-23.243 23.243zm0-34.977c-6.471 0-11.735 5.265-11.735 11.734 0 6.47 5.265 11.735 11.735 11.735s11.735-5.265 11.735-11.735c-.001-6.47-5.265-11.734-11.735-11.734z"/><path d="m318.601 369.074h-141.573c-13.651 0-24.755-11.105-24.755-24.755v-45.723c0-13.65 11.105-24.755 24.755-24.755h141.574c13.65 0 24.755 11.105 24.755 24.755v45.723c-.001 13.65-11.106 24.755-24.756 24.755zm-141.573-83.724c-7.305 0-13.247 5.942-13.247 13.247v45.723c0 7.305 5.942 13.247 13.247 13.247h141.574c7.305 0 13.247-5.942 13.247-13.247v-45.723c0-7.305-5.942-13.247-13.247-13.247z"/><path d="m247.813 405.295c-14.901 0-28.87-3.512-38.324-9.634-2.667-1.727-3.43-5.291-1.702-7.958 1.727-2.669 5.291-3.429 7.958-1.702 15.992 10.354 48.145 10.356 64.136 0 2.667-1.727 6.231-.965 7.958 1.702 1.727 2.668.965 6.23-1.702 7.958-9.453 6.123-23.422 9.634-38.324 9.634z"/><path d="m391.692 382.384h-24.252c-3.179 0-5.754-2.576-5.754-5.754v-76.977c0-3.179 2.576-5.754 5.754-5.754h24.251c16.546 0 30.006 13.461 30.006 30.005v28.473c0 16.547-13.46 30.007-30.005 30.007zm-18.498-11.508h18.498c10.199 0 18.498-8.299 18.498-18.498v-28.473c0-10.199-8.299-18.498-18.498-18.498h-18.498z"/><path d="m128.189 382.384h-24.251c-16.546 0-30.006-13.461-30.006-30.006v-28.473c0-16.546 13.461-30.006 30.006-30.006h24.251c3.178 0 5.754 2.576 5.754 5.754v76.977c0 3.179-2.576 5.754-5.754 5.754zm-24.252-76.976c-10.199 0-18.498 8.299-18.498 18.498v28.473c0 10.199 8.298 18.498 18.498 18.498h18.498v-65.468z"/><path d="m392.11 305.408c-3.179 0-5.754-2.576-5.754-5.754v-55.977c0-3.178 2.576-5.754 5.754-5.754 3.179 0 5.754 2.576 5.754 5.754v55.977c.001 3.178-2.575 5.754-5.754 5.754z"/><path d="m392.11 249.431c-12.35 0-22.397-10.048-22.397-22.397 0-12.35 10.047-22.397 22.397-22.397s22.398 10.047 22.398 22.397c0 12.349-10.048 22.397-22.398 22.397zm0-33.287c-6.004 0-10.888 4.885-10.888 10.889s4.885 10.888 10.888 10.888c6.005 0 10.889-4.885 10.889-10.888.001-6.004-4.884-10.889-10.889-10.889z"/><path d="m167.578 232.722c-3.211 0-6.013-1.224-7.852-3.565l-26.492-33.721h-40.185c-12.256 0-22.226-9.971-22.226-22.227v-86.695c0-12.256 9.97-22.227 22.226-22.227h131.443c12.256 0 22.226 9.971 22.226 22.227v86.693c0 12.256-9.97 22.227-22.226 22.227h-44.091l1.389 24.7c.405 7.189-7.328 12.588-14.212 12.588zm-74.529-156.926c-5.91 0-10.719 4.808-10.719 10.719v86.693c0 5.91 4.808 10.719 10.719 10.719h42.981c1.766 0 3.435.811 4.525 2.2l27.519 35.03c.728-.146 1.702-.604 2.188-1.044l-1.693-30.109c-.185-3.283 2.457-6.077 5.745-6.077h50.178c5.91 0 10.719-4.808 10.719-10.719v-86.694c0-5.91-4.808-10.719-10.719-10.719z"/><path d="m212.425 102.739h-68.965c-3.178 0-5.754-2.576-5.754-5.754s2.576-5.754 5.754-5.754h68.965c3.178 0 5.754 2.576 5.754 5.754 0 3.177-2.576 5.754-5.754 5.754zm-94.44 0h-12.868c-3.178 0-5.754-2.576-5.754-5.754s2.576-5.754 5.754-5.754h12.868c3.178 0 5.754 2.576 5.754 5.754.001 3.177-2.575 5.754-5.754 5.754z"/><path d="m212.425 135.616h-14.247c-3.178 0-5.754-2.577-5.754-5.754 0-3.178 2.576-5.754 5.754-5.754h14.247c3.178 0 5.754 2.576 5.754 5.754 0 3.177-2.576 5.754-5.754 5.754zm-39.722 0h-67.586c-3.178 0-5.754-2.577-5.754-5.754 0-3.178 2.576-5.754 5.754-5.754h67.586c3.178 0 5.754 2.576 5.754 5.754 0 3.177-2.576 5.754-5.754 5.754z"/><path d="m212.425 168.492h-60.702c-3.178 0-5.754-2.576-5.754-5.754s2.576-5.754 5.754-5.754h60.702c3.178 0 5.754 2.576 5.754 5.754s-2.576 5.754-5.754 5.754zm-86.177 0h-21.131c-3.178 0-5.754-2.576-5.754-5.754s2.576-5.754 5.754-5.754h21.131c3.178 0 5.754 2.576 5.754 5.754s-2.576 5.754-5.754 5.754z"/></g></svg>