<svg id="Capa_1" enable-background="new 0 0 512 512" height="512" viewBox="0 0 512 512" width="512" xmlns="http://www.w3.org/2000/svg"><g><path d="m463.539 131.958h-86.599c-4.143 0-7.5 3.357-7.5 7.5s3.357 7.5 7.5 7.5h86.599c4.143 0 7.5-3.357 7.5-7.5s-3.358-7.5-7.5-7.5z"/><path d="m376.94 111.864h64.659c4.143 0 7.5-3.357 7.5-7.5s-3.357-7.5-7.5-7.5h-64.659c-4.143 0-7.5 3.357-7.5 7.5 0 4.142 3.357 7.5 7.5 7.5z"/><path d="m236.709 236.533h-76.452c-27.91 0-50.615 22.691-50.615 50.582v77.015c0 27.891 22.705 50.583 50.615 50.583h186.437c27.909 0 50.616-22.692 50.616-50.583v-77.015c0-27.891-22.706-50.582-50.616-50.582h-75.516c-4.143 0-7.5 3.357-7.5 7.5s3.357 7.5 7.5 7.5h75.516c19.639 0 35.616 15.962 35.616 35.581v77.015c0 19.62-15.977 35.582-35.616 35.582h-186.437c-19.638 0-35.615-15.962-35.615-35.582v-77.015c0-19.619 15.977-35.581 35.615-35.581h76.452c4.143 0 7.5-3.357 7.5-7.5s-3.358-7.5-7.5-7.5z"/><path d="m512 125.269v-3.23c0-44.961-36.621-81.541-81.631-81.541h-31.29c-35.471 0-65.731 22.72-76.971 54.361-10.24-2.27-20.79-4.01-31.55-5.22.02-.46.03-.92.03-1.39 0-20.46-16.66-37.101-37.131-37.101-20.45 0-37.09 16.64-37.09 37.101 0 .48.01.96.03 1.44-43.271 4.94-82.891 18.5-114.161 39.371-45.991 30.69-70.291 74.571-70.291 126.901v14.716c-8.499 2.767-15.849 8.359-21.347 16.415-6.834 10.012-10.598 23.346-10.598 37.545 0 14.221 3.771 27.593 10.615 37.655 8.111 11.922 20.222 18.488 34.101 18.488h22.489v1.593c0 23.76 9.33 46.151 26.26 63.041 16.85 16.83 39.14 26.09 62.781 26.09h.17l80.531-.11c4.14-.01 7.49-3.37 7.49-7.51-.01-4.14-3.36-7.49-7.5-7.49h-.01l-80.541.11c-19.65.06-38.27-7.67-52.331-21.7-14.09-14.07-21.85-32.69-21.85-52.431v-9.054c0-.013.002-.026.002-.039s-.002-.026-.002-.039v-96.69c0-59.101 48.121-107.191 107.281-107.191h63.89c.029 0 .056.004.085.004s.056-.004.085-.004h63.922c4.61 0 9.15.29 13.6.85 3.59 5.4 7.85 10.41 12.71 14.9l.18 24.47c-.13 4.34 2.12 6.67 3.5 7.69.98.72 2.71 1.66 5.13 1.66 1.11 0 2.36-.2 3.75-.71.08-.03.15-.06.23-.09l27.72-11.22c.08-.03.16-.07.24-.1h14.34c16.053 18.671 25.783 42.899 25.876 69.361v.011c0 .006.001.011.001.017 0 .118.004.235.004.353v96.632c0 .032-.005.064-.005.097s.004.064.005.097v8.996c0 19.74-7.76 38.36-21.86 52.431-14.02 14-32.55 21.7-52.191 21.7h-.14l-79.001-.11h-.01c-4.14 0-7.5 3.35-7.5 7.49-.01 4.14 3.35 7.5 7.49 7.51l79.001.11h.17c23.63 0 45.92-9.26 62.781-26.09 16.93-16.9 26.26-39.28 26.26-63.041v-1.593h22.486c13.879 0 25.99-6.566 34.101-18.488 6.845-10.062 10.615-23.434 10.615-37.655 0-14.198-3.764-27.533-10.598-37.546-5.405-7.921-12.605-13.452-20.924-16.266v-14.866c0-20.26-3.64-39.26-10.78-56.711 27.941-12.95 47.351-41.24 47.351-73.98zm-444.795 240.51h-22.489c-20.417 0-29.716-21.328-29.716-41.142 0-11.05 2.911-21.654 7.987-29.091 5.372-7.873 12.683-11.864 21.729-11.864h22.489zm178.756-211.42h-56.475c-64.784 0-117.947 50.604-122.021 114.322h-20.52v-12.721c0-47.08 22-86.641 63.611-114.421 29.79-19.88 67.831-32.69 109.501-37.17 4.958 10.221 14.486 17.821 25.904 20.174zm7.508-44.041c-.003 0-.005 0-.008 0-.004 0-.007 0-.011 0-6.497-.002-12.355-2.821-16.393-7.31-3.52-3.89-5.67-9.03-5.69-14.68v-.08c0-12.19 9.91-22.1 22.09-22.1 12.2 0 22.13 9.91 22.13 22.1v.05c-.01 5.65-2.16 10.79-5.68 14.69-4.047 4.498-9.923 7.326-16.438 7.33zm63.999 44.041h-56.507v-29.817c11.45-2.358 20.995-9.983 25.946-20.223 10.77 1.14 21.31 2.85 31.52 5.08-.65 4.12-.98 8.34-.98 12.64v3.23c0 10.11 1.89 19.99 5.47 29.21-1.809-.08-3.619-.12-5.449-.12zm122.009 114.322c-1.464-22.9-9.247-44.102-21.648-61.871h12.54c6.92 0 13.64-.86 20.06-2.49 6.62 15.89 10 33.19 10 51.64v12.721zm44.487 26.864c5.076 7.438 7.987 18.041 7.987 29.091 0 19.815-9.299 41.142-29.716 41.142h-22.486v-82.098h22.486c9.046.001 16.356 3.992 21.729 11.865zm-25.725-109.846c-4.6 2.13-9.49 3.75-14.59 4.78-4.29.87-8.73 1.33-13.28 1.33h-24.89-21.58c-.28 0-.55 0-.8.01 0 0 0 0-.01 0-1.79.07-2.92.4-4.73 1.31l-19.46 7.88-.14-18.5c.18-2.04-.44-4.02-1.74-5.59-.01 0-.01-.01-.01-.01-.16-.2-.34-.39-.52-.57-.14-.14-.28-.27-.43-.39-6.51-5.53-11.82-12.14-15.74-19.45-5.11-9.51-7.87-20.21-7.87-31.23v-3.23c0-3.05.21-6.06.61-9 .68-5.05 1.94-9.91 3.7-14.53 9.53-25.12 33.87-43.011 62.321-43.011h31.29c36.74 0 66.631 29.85 66.631 66.541v3.23c-.001 26.76-15.901 49.88-38.762 60.43z"/><path d="m226.868 355.373c-2.975 2.883-3.049 7.631-.166 10.606 7.307 7.539 17.037 11.692 27.398 11.692 10.359 0 20.09-4.152 27.397-11.692 2.883-2.975 2.809-7.723-.166-10.606-2.976-2.883-7.724-2.808-10.606.166-4.456 4.599-10.36 7.131-16.625 7.131-6.266 0-12.17-2.532-16.626-7.131-2.885-2.973-7.632-3.047-10.606-.166z"/><path d="m160.609 307.82c0 16.927 13.779 30.698 30.716 30.698s30.716-13.771 30.716-30.698-13.779-30.698-30.716-30.698-30.716 13.771-30.716 30.698zm46.432 0c0 8.655-7.05 15.697-15.716 15.697s-15.716-7.042-15.716-15.697 7.05-15.697 15.716-15.697c8.667-.001 15.716 7.042 15.716 15.697z"/><path d="m349.545 307.82c0-16.927-13.779-30.698-30.716-30.698-16.952 0-30.745 13.771-30.745 30.698s13.792 30.698 30.745 30.698c16.937 0 30.716-13.771 30.716-30.698zm-46.46 0c0-8.655 7.063-15.697 15.744-15.697 8.666 0 15.716 7.042 15.716 15.697s-7.05 15.697-15.716 15.697c-8.682 0-15.744-7.042-15.744-15.697z"/></g></svg>