<svg xmlns="http://www.w3.org/2000/svg" id="Capa_1" height="512" viewBox="0 0 511.822 511.822" width="512"><g><path d="m262.416 384.571h-198.977c-19.869 0-36.034-16.165-36.034-36.034v-50.208c0-4.142-3.358-7.5-7.5-7.5s-7.5 3.358-7.5 7.5v50.208c0 28.14 22.894 51.034 51.034 51.034h198.977c4.142 0 7.5-3.358 7.5-7.5s-3.358-7.5-7.5-7.5z"></path><path d="m19.906 273.867c4.142 0 7.5-3.358 7.5-7.5v-215.333c0-19.869 16.164-36.034 36.033-36.034h373.116c19.869 0 36.034 16.165 36.034 36.034v261.62c0 4.142 3.358 7.5 7.5 7.5s7.5-3.358 7.5-7.5v-261.62c0-28.14-22.894-51.034-51.034-51.034h-373.116c-28.14 0-51.034 22.894-51.034 51.034v215.333c.001 4.142 3.358 7.5 7.501 7.5z"></path><path d="m263.344 354.571h-199.905c-3.327 0-6.034-2.707-6.034-6.034v-297.503c0-3.327 2.707-6.034 6.034-6.034h292.308c4.142 0 7.5-3.358 7.5-7.5s-3.358-7.5-7.5-7.5h-292.308c-11.598 0-21.034 9.436-21.034 21.034v297.503c0 11.598 9.436 21.034 21.034 21.034h199.905c4.142 0 7.5-3.358 7.5-7.5s-3.357-7.5-7.5-7.5z"></path><path d="m450.089 308.88c4.142 0 7.5-3.358 7.5-7.5v-250.346c0-11.598-9.436-21.034-21.034-21.034h-48.846c-4.142 0-7.5 3.358-7.5 7.5s3.358 7.5 7.5 7.5h48.846c3.327 0 6.034 2.707 6.034 6.034v250.346c0 4.142 3.358 7.5 7.5 7.5z"></path><path d="m491.916 435.29c-4.142 0-7.5 3.358-7.5 7.5v60.53c0 4.142 3.358 7.5 7.5 7.5s7.5-3.358 7.5-7.5v-60.53c0-4.143-3.358-7.5-7.5-7.5z"></path><path d="m472.464 334.564c-5.017 0-9.716 1.382-13.743 3.78-3.888-10.112-13.698-17.31-25.163-17.31-4.536 0-8.811 1.131-12.565 3.119-2.624-12.132-13.435-21.251-26.34-21.251-4.291 0-8.348 1.013-11.953 2.804v-38.078h21.8c11.798 0 21.397-9.599 21.397-21.397v-24.451c0-11.798-9.599-21.397-21.397-21.397h-95.736c-11.798 0-21.397 9.599-21.397 21.397v24.451c0 11.798 9.599 21.397 21.397 21.397h20.03v74.607h-4.224c-21.865 0-39.654 17.789-39.654 39.654v50.676c0 18.025 4.108 36.149 11.881 52.412l10.791 22.578c1.288 2.694 3.973 4.268 6.772 4.268 1.084 0 2.186-.236 3.229-.735 3.737-1.786 5.319-6.264 3.533-10.001l-10.791-22.578c-6.813-14.255-10.415-30.143-10.415-45.943v-50.676c0-13.594 11.06-24.654 24.654-24.654h4.224v55.279c0 4.142 3.358 7.5 7.5 7.5s7.5-3.358 7.5-7.5v-157.41c0-6.591 5.362-11.953 11.953-11.953s11.953 5.362 11.953 11.953v102.649c0 4.142 3.358 7.5 7.5 7.5s7.5-3.358 7.5-7.5v-27.901c0-6.591 5.362-11.953 11.953-11.953s11.953 5.362 11.953 11.953v37.056c0 4.142 3.358 7.5 7.5 7.5s7.5-3.358 7.5-7.5v-18.923c0-6.591 5.362-11.953 11.953-11.953s11.953 5.362 11.953 11.953v26.965c0 4.142 3.358 7.5 7.5 7.5s7.5-3.358 7.5-7.5v-13.434c0-6.591 5.362-11.953 11.953-11.953s11.953 5.362 11.953 11.953v49.31c0 4.142 3.358 7.5 7.5 7.5s7.5-3.358 7.5-7.5v-49.31c-.002-14.861-12.093-26.953-26.954-26.953zm-116.717-106.412c-14.026 0-25.578 10.771-26.834 24.475h-20.149c-3.527 0-6.397-2.87-6.397-6.397v-24.45c0-3.527 2.87-6.397 6.397-6.397h95.736c3.527 0 6.397 2.87 6.397 6.397v24.451c0 3.527-2.87 6.397-6.397 6.397h-21.918c-1.256-13.705-12.809-24.476-26.835-24.476z"></path><path d="m92.368 224.532v9.966h-2.949c-8.125 0-14.735 6.61-14.735 14.735v13.673c0 8.125 6.61 14.735 14.735 14.735h10.971l11.072 9.391c5.989 5.079 13.612 7.876 21.464 7.876h78.082c7.852 0 15.475-2.797 21.464-7.876l11.072-9.39h10.971c8.125 0 14.735-6.61 14.735-14.735v-13.673c0-8.125-6.61-14.735-14.735-14.735h-2.949v-9.966c0-33.38-22.631-61.558-53.35-70.042 1.667-3.181 2.615-6.796 2.615-10.63 0-12.684-10.319-23.003-23.002-23.003h-11.722c-12.684 0-23.003 10.319-23.003 23.003 0 3.835.958 7.445 2.625 10.627-30.725 8.48-53.361 36.66-53.361 70.044zm161.881 38.11h-13.458c-1.777 0-3.496.631-4.851 1.78l-13.171 11.17c-3.282 2.784-7.459 4.316-11.762 4.316h-78.082c-4.303 0-8.48-1.533-11.762-4.316l-13.171-11.171c-1.355-1.149-3.074-1.78-4.851-1.78h-13.458v-13.144h164.566zm-88.143-126.785h11.722c4.413 0 8.002 3.59 8.002 8.003s-3.59 8.002-8.002 8.002h-11.722c-4.413 0-8.003-3.59-8.003-8.002s3.59-8.003 8.003-8.003zm-1.068 31.005h13.857c31.799 0 57.67 25.871 57.67 57.67v9.966h-129.197v-9.966c0-31.799 25.871-57.67 57.67-57.67z"></path><path d="m413.249 85.809c-2.707-3.137-7.443-3.484-10.578-.777l-11.173 9.644c-9.141-9.197-21.792-14.901-35.752-14.901-27.808 0-50.432 22.624-50.432 50.432s22.624 50.432 50.432 50.432c27.809 0 50.432-22.624 50.432-50.432 0-8.443-2.096-16.401-5.778-23.4l12.071-10.419c3.137-2.708 3.484-7.444.778-10.579zm-22.07 44.398c0 19.537-15.895 35.432-35.432 35.432s-35.432-15.895-35.432-35.432 15.895-35.432 35.432-35.432c9.429 0 18.002 3.709 24.357 9.736l-25.923 22.376-2.578-3.218c-2.589-3.233-7.309-3.756-10.542-1.165-3.233 2.589-3.755 7.309-1.165 10.542l7.442 9.291c1.273 1.59 3.139 2.594 5.167 2.78.229.021.458.032.687.032 1.791 0 3.533-.642 4.9-1.822l30.518-26.342c1.651 4.088 2.569 8.548 2.569 13.222z"></path></g></svg>